Coordinates
version=1
nRows=13
nColumns=40
inDegrees=yes

Units are S.I. units (second, meters, Newtons, ...)
Angles are in degrees.

endheader
time	pelvis_tilt	pelvis_list	pelvis_rotation	pelvis_tx	pelvis_ty	pelvis_tz	hip_flexion_r	hip_adduction_r	hip_rotation_r	knee_angle_r	knee_angle_r_beta	ankle_angle_r	subtalar_angle_r	mtp_angle_r	hip_flexion_l	hip_adduction_l	hip_rotation_l	knee_angle_l	knee_angle_l_beta	ankle_angle_l	subtalar_angle_l	mtp_angle_l	lumbar_extension	lumbar_bending	lumbar_rotation	arm_flex_r	arm_add_r	arm_rot_r	elbow_flex_r	pro_sup_r	wrist_flex_r	wrist_dev_r	arm_flex_l	arm_add_l	arm_rot_l	elbow_flex_l	pro_sup_l	wrist_flex_l	wrist_dev_l
      0.88000000	     -1.44629229	      2.35382799	      2.50939737	      0.29151707	      0.95592403	     -1.41950928	     -0.91030078	     -1.33968759	    -14.35567234	    -14.98503558	     -0.26153821	     10.04607590	     -0.79216252	     -9.45169309	     24.91667982	      5.33379962	     14.75665865	    -33.16960811	     -0.57891887	      2.49650479	     12.12762882	     11.85933792	      0.65804944	     -2.28134194	     -0.40492483	      2.75235219	    -11.24560440	    -17.57015968	     26.14255953	     89.95437384	      0.00000000	      0.00000000	     -6.81747329	     10.52280959	      6.65659599	     18.78681592	     89.95437384	      0.00000000	      0.00000000
      0.89000000	     -1.35220619	      2.75208124	      1.85056488	      0.30391852	      0.95439158	     -1.41971188	     -2.00894345	     -1.81690284	    -14.02512697	    -14.65480983	     -0.25577468	     10.74364308	     -0.05149860	     -9.88257853	     24.75792632	      4.98330397	     15.34408581	    -29.16662797	     -0.50905369	      1.52700710	     10.06068680	     11.87628584	      0.50599853	     -2.63749835	      0.28303480	      3.05385434	    -11.71229474	    -16.19752900	     28.11069975	     89.95437384	      0.00000000	      0.00000000	     -7.37571373	     10.20130283	      6.23858964	     16.43553624	     89.95437384	      0.00000000	      0.00000000
      0.90000000	     -0.62930449	      3.08629716	      1.12114669	      0.31718463	      0.95351421	     -1.41998971	     -3.90679450	     -2.36019133	    -14.69193427	    -14.19901835	     -0.24781962	     11.31796422	      1.54110621	    -10.88021884	     23.77599352	      4.81139594	     16.27738907	    -25.16954074	     -0.43929136	      1.07404263	      8.04738532	     11.56931845	     -0.24273433	     -2.93164663	      0.80901054	      3.66330538	    -12.26788084	    -14.61205081	     29.64302910	     89.95437384	      0.00000000	      0.00000000	     -8.48480308	      9.94046049	      5.51276106	     15.09905674	     89.95437384	      0.00000000	      0.00000000
      0.91000000	     -0.44276025	      3.12824678	      0.62920649	      0.33008161	      0.95156408	     -1.42056552	     -5.11446612	     -2.59074372	    -15.35831901	    -13.90755876	     -0.24273269	     11.79658558	      3.08006848	    -12.31244578	     23.56615107	      4.81450557	     16.62318749	    -21.48749705	     -0.37502757	      0.77014616	      6.04464664	     11.07252657	     -0.39096232	     -2.90805042	      1.22118043	      4.15863136	    -12.67654494	    -13.96650977	     31.18422709	     89.95437384	      0.00000000	      0.00000000	     -9.54359479	      9.71441702	      4.54700658	     13.75399917	     89.95437384	      0.00000000	      0.00000000
      0.92000000	     -0.73381928	      2.80225895	      0.29051625	      0.34230059	      0.94870799	     -1.42128117	     -5.65229391	     -2.31690329	    -15.38051862	    -13.83629638	     -0.24148893	     12.21669964	      3.32645389	    -12.69530921	     24.09166971	      5.11541054	     16.36002865	    -18.20118865	     -0.31767067	      0.63447300	      4.57551019	     11.06181012	     -0.09836306	     -2.47055004	      1.52530386	      4.61178078	    -13.19154928	    -13.25916636	     32.71965346	     89.95437384	      0.00000000	      0.00000000	    -10.43196680	      9.35880047	      4.18666637	     12.33437340	     89.95437384	      0.00000000	      0.00000000
      0.93000000	     -0.77383536	      2.55873011	     -0.08630653	      0.35487215	      0.94614385	     -1.42192270	     -6.54084544	     -2.12862033	    -15.58653463	    -13.64495638	     -0.23814942	     12.71528414	      3.59839964	    -13.13239271	     24.22644403	      5.41078228	     16.34055587	    -15.01334427	     -0.26203229	      0.35680084	      2.85657328	     11.09317002	     -0.05614167	     -2.13688571	      1.84071796	      4.99222962	    -13.65080559	    -12.74857619	     34.40569487	     89.95437384	      0.00000000	      0.00000000	    -11.32090502	      9.06950921	      3.70341963	     11.03795237	     89.95437384	      0.00000000	      0.00000000
      0.94000000	     -0.20808576	      2.68003658	     -0.63114085	      0.36825537	      0.94448369	     -1.42274830	     -8.23598888	     -2.48843208	    -16.22354837	    -13.25201708	     -0.23129133	     13.00834447	      4.57586924	    -14.14625094	     23.56929266	      5.51406262	     18.00786964	    -12.00498840	     -0.20952657	     -0.43019281	     -0.31411583	     10.77714667	     -0.59855881	     -2.17704835	      2.32997500	      5.34681682	    -14.21774676	    -11.92679555	     36.03231266	     89.95437384	      0.00000000	      0.00000000	    -12.31335160	      8.92748198	      2.03714395	     10.13194299	     89.95437384	      0.00000000	      0.00000000
      0.95000000	     -0.17741855	      2.50164422	     -1.02372705	      0.38140103	      0.94192747	     -1.42345737	     -9.15850018	     -2.53767925	    -16.92538376	    -13.25666010	     -0.23137237	     13.31731840	      5.79218764	    -15.29777312	     23.73756400	      5.96467902	     19.21325161	     -9.76966235	     -0.17051277	     -1.30698625	     -3.90937691	      9.99041870	     -0.50905561	     -1.91086203	      2.84706572	      5.49061325	    -14.52733233	    -12.17624739	     37.63898295	     89.95437384	      0.00000000	      0.00000000	    -13.40843578	      8.92489340	     -1.03699575	      9.42058862	     89.95437384	      0.00000000	      0.00000000
      0.96000000	     -0.28491801	      2.30684833	     -1.41063050	      0.39430398	      0.93917470	     -1.42447850	     -9.86496925	     -2.60664622	    -17.65166731	    -13.36416407	     -0.23324866	     13.66448502	      6.82793433	    -16.25218110	     24.15297465	      6.41291148	     20.24604736	     -8.09811653	     -0.14133880	     -2.39990161	     -7.13561049	      9.21439442	     -0.31947141	     -1.58157036	      3.31516834	      5.64589762	    -14.93887588	    -12.22690982	     39.24099001	     89.95437384	      0.00000000	      0.00000000	    -14.33309757	      8.82196802	     -2.99831393	      8.58449860	     89.95437384	      0.00000000	      0.00000000
      0.97000000	     -0.31835117	      2.31358712	     -1.81261955	      0.40750105	      0.93664653	     -1.42588443	    -10.64662848	     -2.95452735	    -18.38692001	    -13.51056728	     -0.23580388	     13.92284349	      7.83409362	    -16.94973741	     24.48211781	      6.64988255	     21.43764734	     -6.97031238	     -0.12165490	     -3.52821107	    -10.15139835	      8.68269606	     -0.20221428	     -1.44883190	      3.76431989	      5.75164518	    -15.27523085	    -12.48761867	     40.77477715	     89.95437384	      0.00000000	      0.00000000	    -15.20236055	      8.68328279	     -4.51348224	      7.86575399	     89.95437384	      0.00000000	      0.00000000
      0.98000000	     -0.49917696	      2.15651420	     -2.13635523	      0.42051529	      0.93397676	     -1.42734697	    -11.28916142	     -3.03947427	    -18.66448225	    -13.58804704	     -0.23715616	     14.10850455	      7.98804159	    -17.04975075	     24.96508239	      6.90882912	     21.42630807	     -6.32458945	     -0.11038491	     -3.80499829	    -10.85145622	      8.70624958	      0.03714171	     -1.14555927	      3.98209123	      6.05660985	    -15.59130985	    -12.54121379	     41.96811524	     89.95437384	      0.00000000	      0.00000000	    -15.98532242	      8.42312428	     -4.80933084	      7.01920867	     89.95437384	      0.00000000	      0.00000000
      0.99000000	     -0.31504134	      2.20479196	     -2.66034964	      0.43437959	      0.93191854	     -1.42862311	    -12.23664586	     -3.63073063	    -19.63315843	    -13.95811366	     -0.24361504	     14.20378963	      9.99291033	    -17.51026372	     25.03386142	      7.23582902	     22.50345058	     -6.45854064	     -0.11272280	     -4.66772559	    -13.16316758	      8.50482211	     -0.03201299	     -1.05432403	      4.56751892	      5.92522856	    -15.84287842	    -13.05079010	     43.61706744	     89.95437384	      0.00000000	      0.00000000	    -16.80321814	      8.37816357	     -6.31149474	      6.56913451	     89.95437384	      0.00000000	      0.00000000
      1.00000000	     -0.23205916	      2.23330592	     -3.22961321	      0.44849089	      0.92986587	     -1.42989930	    -13.11463080	     -4.07568686	    -19.69285749	    -14.18784850	     -0.24762467	     14.17682102	     10.34194916	    -17.43936438	     25.10202981	      7.42411666	     21.99216766	     -6.97168211	     -0.12167881	     -4.39339440	    -12.68321727	      8.28870491	      0.03807232	     -0.94360779	      5.06778446	      5.87973761	    -16.13038855	    -13.21102324	     44.92446077	     89.95437384	      0.00000000	      0.00000000	    -17.52492852	      8.22092245	     -6.67567671	      5.92745083	     89.95437384	      0.00000000	      0.00000000
